<mxfile host="app.diagrams.net" agent="Mozilla/5.0 (Windows NT 10.0; Win64; x64) AppleWebKit/537.36 (KHTML, like Gecko) Chrome/137.0.0.0 Safari/537.36 Edg/137.0.0.0" version="27.1.6">
  <diagram name="PÃ¡gina-1" id="RAa1BdrujBWMfVXAcfYH">
    <mxGraphModel grid="1" page="1" gridSize="10" guides="1" tooltips="1" connect="1" arrows="1" fold="1" pageScale="1" pageWidth="827" pageHeight="1169" math="0" shadow="0">
      <root>
        <mxCell id="0" />
        <mxCell id="1" parent="0" />
        <mxCell id="TL9MQoXClcoYPPyAwhr7-53" value="CU008 Gestionar eventos" style="swimlane;childLayout=stackLayout;resizeParent=1;resizeParentMax=0;startSize=20;horizontal=0;horizontalStack=1;" vertex="1" parent="1">
          <mxGeometry x="840" y="100" width="790" height="540" as="geometry">
            <mxRectangle x="200" y="80" width="40" height="50" as="alternateBounds" />
          </mxGeometry>
        </mxCell>
        <mxCell id="TL9MQoXClcoYPPyAwhr7-54" value="Administrador" style="swimlane;startSize=20;" vertex="1" parent="TL9MQoXClcoYPPyAwhr7-53">
          <mxGeometry x="20" width="290" height="540" as="geometry" />
        </mxCell>
        <mxCell id="TL9MQoXClcoYPPyAwhr7-55" value="" style="ellipse;html=1;shape=startState;fillColor=#000000;strokeColor=#ff0000;fillStyle=auto;" vertex="1" parent="TL9MQoXClcoYPPyAwhr7-54">
          <mxGeometry x="20" y="25" width="30" height="30" as="geometry" />
        </mxCell>
        <mxCell id="TL9MQoXClcoYPPyAwhr7-57" value="" style="edgeStyle=orthogonalEdgeStyle;html=1;verticalAlign=bottom;endArrow=open;endSize=8;strokeColor=#ff0000;rounded=0;entryX=0.5;entryY=0;entryDx=0;entryDy=0;" edge="1" parent="TL9MQoXClcoYPPyAwhr7-54" source="TL9MQoXClcoYPPyAwhr7-55">
          <mxGeometry relative="1" as="geometry">
            <mxPoint x="155" y="80" as="targetPoint" />
            <mxPoint x="340" y="320" as="sourcePoint" />
          </mxGeometry>
        </mxCell>
        <mxCell id="TL9MQoXClcoYPPyAwhr7-58" value="" style="ellipse;html=1;shape=endState;fillColor=#000000;strokeColor=#ff0000;" vertex="1" parent="TL9MQoXClcoYPPyAwhr7-54">
          <mxGeometry x="140" y="400" width="30" height="30" as="geometry" />
        </mxCell>
        <mxCell id="nb-lKN3G41PqXar901ml-1" value="Pulsa el apartado &quot;Administrar eventos&quot;" style="rounded=1;whiteSpace=wrap;html=1;arcSize=40;fontColor=#000000;fillColor=#ffffc0;strokeColor=#ff0000;" vertex="1" parent="TL9MQoXClcoYPPyAwhr7-54">
          <mxGeometry x="110" y="80" width="120" height="50" as="geometry" />
        </mxCell>
        <mxCell id="TL9MQoXClcoYPPyAwhr7-61" style="edgeStyle=orthogonalEdgeStyle;rounded=0;orthogonalLoop=1;jettySize=auto;html=1;entryX=0.5;entryY=0;entryDx=0;entryDy=0;strokeColor=light-dark(#ff0000, #ededed);" edge="1" parent="TL9MQoXClcoYPPyAwhr7-53" source="nb-lKN3G41PqXar901ml-1" target="TL9MQoXClcoYPPyAwhr7-65">
          <mxGeometry relative="1" as="geometry">
            <Array as="points">
              <mxPoint x="223" y="40" />
              <mxPoint x="435" y="40" />
              <mxPoint x="435" y="60" />
            </Array>
            <mxPoint x="222.5" y="122.5" as="sourcePoint" />
          </mxGeometry>
        </mxCell>
        <mxCell id="TL9MQoXClcoYPPyAwhr7-81" style="edgeStyle=orthogonalEdgeStyle;rounded=0;orthogonalLoop=1;jettySize=auto;html=1;strokeColor=light-dark(#ff0000, #ededed);" edge="1" parent="TL9MQoXClcoYPPyAwhr7-53" source="TL9MQoXClcoYPPyAwhr7-79">
          <mxGeometry relative="1" as="geometry">
            <Array as="points">
              <mxPoint x="520" y="480" />
              <mxPoint x="179" y="480" />
              <mxPoint x="179" y="430" />
            </Array>
            <mxPoint x="179" y="430" as="targetPoint" />
          </mxGeometry>
        </mxCell>
        <mxCell id="TL9MQoXClcoYPPyAwhr7-63" value="Sistema" style="swimlane;startSize=20;" vertex="1" parent="TL9MQoXClcoYPPyAwhr7-53">
          <mxGeometry x="310" width="480" height="540" as="geometry" />
        </mxCell>
        <mxCell id="TL9MQoXClcoYPPyAwhr7-64" style="edgeStyle=orthogonalEdgeStyle;rounded=0;orthogonalLoop=1;jettySize=auto;html=1;entryX=0.5;entryY=0;entryDx=0;entryDy=0;strokeColor=light-dark(#ff0000, #ededed);" edge="1" parent="TL9MQoXClcoYPPyAwhr7-63" source="TL9MQoXClcoYPPyAwhr7-65" target="TL9MQoXClcoYPPyAwhr7-66">
          <mxGeometry relative="1" as="geometry" />
        </mxCell>
        <mxCell id="TL9MQoXClcoYPPyAwhr7-65" value="Mostrar apartado" style="rounded=1;whiteSpace=wrap;html=1;arcSize=40;fontColor=#000000;fillColor=#ffffc0;strokeColor=#ff0000;" vertex="1" parent="TL9MQoXClcoYPPyAwhr7-63">
          <mxGeometry x="64.5" y="60" width="120" height="50" as="geometry" />
        </mxCell>
        <mxCell id="TL9MQoXClcoYPPyAwhr7-66" value="Mostrar listado de eventos" style="rounded=1;whiteSpace=wrap;html=1;arcSize=40;fontColor=#000000;fillColor=#ffffc0;strokeColor=light-dark(#ff0000, #ededed);" vertex="1" parent="TL9MQoXClcoYPPyAwhr7-63">
          <mxGeometry x="64.5" y="130" width="120" height="40" as="geometry" />
        </mxCell>
        <mxCell id="TL9MQoXClcoYPPyAwhr7-150" style="edgeStyle=orthogonalEdgeStyle;rounded=0;orthogonalLoop=1;jettySize=auto;html=1;entryX=0.5;entryY=0;entryDx=0;entryDy=0;strokeColor=light-dark(#ff0000, #ededed);exitX=0.894;exitY=0.521;exitDx=0;exitDy=0;exitPerimeter=0;" edge="1" parent="TL9MQoXClcoYPPyAwhr7-63" target="TL9MQoXClcoYPPyAwhr7-118">
          <mxGeometry relative="1" as="geometry">
            <mxPoint x="179.77999999999997" y="190.42000000000007" as="sourcePoint" />
            <Array as="points">
              <mxPoint x="178" y="190" />
              <mxPoint x="178" y="220" />
              <mxPoint x="179" y="220" />
            </Array>
          </mxGeometry>
        </mxCell>
        <mxCell id="TL9MQoXClcoYPPyAwhr7-67" value="" style="shape=line;html=1;strokeWidth=6;strokeColor=#ff0000;" vertex="1" parent="TL9MQoXClcoYPPyAwhr7-63">
          <mxGeometry x="60" y="180" width="140" height="20" as="geometry" />
        </mxCell>
        <mxCell id="TL9MQoXClcoYPPyAwhr7-69" value="Crear cuenta" style="rounded=1;whiteSpace=wrap;html=1;arcSize=40;fontColor=#000000;fillColor=#ffffc0;strokeColor=#ff0000;" vertex="1" parent="TL9MQoXClcoYPPyAwhr7-63">
          <mxGeometry x="54.5" y="350" width="80" height="40" as="geometry" />
        </mxCell>
        <mxCell id="TL9MQoXClcoYPPyAwhr7-71" style="edgeStyle=orthogonalEdgeStyle;rounded=0;orthogonalLoop=1;jettySize=auto;html=1;fontColor=light-dark(#ff0000, #ededed);strokeColor=light-dark(#ff0000, #ededed);" edge="1" parent="TL9MQoXClcoYPPyAwhr7-63" source="TL9MQoXClcoYPPyAwhr7-72" target="TL9MQoXClcoYPPyAwhr7-79">
          <mxGeometry relative="1" as="geometry">
            <Array as="points">
              <mxPoint x="189" y="410" />
              <mxPoint x="210" y="410" />
            </Array>
          </mxGeometry>
        </mxCell>
        <mxCell id="TL9MQoXClcoYPPyAwhr7-72" value="Editar evento" style="rounded=1;whiteSpace=wrap;html=1;arcSize=40;fontColor=#000000;fillColor=#ffffc0;strokeColor=#ff0000;" vertex="1" parent="TL9MQoXClcoYPPyAwhr7-63">
          <mxGeometry x="144.5" y="350" width="80" height="40" as="geometry" />
        </mxCell>
        <mxCell id="TL9MQoXClcoYPPyAwhr7-74" style="edgeStyle=orthogonalEdgeStyle;rounded=0;orthogonalLoop=1;jettySize=auto;html=1;strokeColor=light-dark(#ff0000, #ededed);" edge="1" parent="TL9MQoXClcoYPPyAwhr7-63" source="TL9MQoXClcoYPPyAwhr7-75" target="TL9MQoXClcoYPPyAwhr7-79">
          <mxGeometry relative="1" as="geometry">
            <Array as="points">
              <mxPoint x="259" y="410" />
              <mxPoint x="210" y="410" />
            </Array>
          </mxGeometry>
        </mxCell>
        <mxCell id="TL9MQoXClcoYPPyAwhr7-75" value="Cancelar evento" style="rounded=1;whiteSpace=wrap;html=1;arcSize=40;fontColor=#000000;fillColor=#ffffc0;strokeColor=#ff0000;" vertex="1" parent="TL9MQoXClcoYPPyAwhr7-63">
          <mxGeometry x="230" y="350" width="61" height="40" as="geometry" />
        </mxCell>
        <mxCell id="TL9MQoXClcoYPPyAwhr7-77" style="edgeStyle=orthogonalEdgeStyle;rounded=0;orthogonalLoop=1;jettySize=auto;html=1;fontColor=light-dark(#ff0000, #ededed);strokeColor=light-dark(#ff0000, #ededed);" edge="1" parent="TL9MQoXClcoYPPyAwhr7-63" source="TL9MQoXClcoYPPyAwhr7-78" target="TL9MQoXClcoYPPyAwhr7-79">
          <mxGeometry relative="1" as="geometry">
            <Array as="points">
              <mxPoint x="89" y="410" />
              <mxPoint x="210" y="410" />
            </Array>
          </mxGeometry>
        </mxCell>
        <mxCell id="TL9MQoXClcoYPPyAwhr7-78" value="Crear evento" style="rounded=1;whiteSpace=wrap;html=1;arcSize=40;fontColor=#000000;fillColor=#ffffc0;strokeColor=#ff0000;" vertex="1" parent="TL9MQoXClcoYPPyAwhr7-63">
          <mxGeometry x="54.5" y="350" width="80" height="40" as="geometry" />
        </mxCell>
        <mxCell id="TL9MQoXClcoYPPyAwhr7-79" value="" style="shape=line;html=1;strokeWidth=6;strokeColor=light-dark(#ff0000, #ededed);" vertex="1" parent="TL9MQoXClcoYPPyAwhr7-63">
          <mxGeometry x="105" y="440" width="210" height="10" as="geometry" />
        </mxCell>
        <mxCell id="TL9MQoXClcoYPPyAwhr7-89" style="edgeStyle=orthogonalEdgeStyle;rounded=0;orthogonalLoop=1;jettySize=auto;html=1;exitX=0.5;exitY=1;exitDx=0;exitDy=0;strokeColor=light-dark(#ff0000, #ededed);" edge="1" parent="TL9MQoXClcoYPPyAwhr7-63" source="TL9MQoXClcoYPPyAwhr7-83" target="TL9MQoXClcoYPPyAwhr7-79">
          <mxGeometry relative="1" as="geometry">
            <Array as="points">
              <mxPoint x="339" y="398" />
              <mxPoint x="339" y="410" />
              <mxPoint x="210" y="410" />
            </Array>
          </mxGeometry>
        </mxCell>
        <mxCell id="TL9MQoXClcoYPPyAwhr7-83" value="Modificar estado de evento" style="rounded=1;whiteSpace=wrap;html=1;arcSize=40;fontColor=#000000;fillColor=#ffffc0;strokeColor=#ff0000;" vertex="1" parent="TL9MQoXClcoYPPyAwhr7-63">
          <mxGeometry x="300" y="350" width="110" height="47.5" as="geometry" />
        </mxCell>
        <mxCell id="TL9MQoXClcoYPPyAwhr7-118" value="ver detalles evento" style="rounded=1;whiteSpace=wrap;html=1;arcSize=40;fontColor=#000000;fillColor=#ffffc0;strokeColor=#ff0000;" vertex="1" parent="TL9MQoXClcoYPPyAwhr7-63">
          <mxGeometry x="148" y="220" width="61" height="45" as="geometry" />
        </mxCell>
        <mxCell id="TL9MQoXClcoYPPyAwhr7-120" value="" style="edgeStyle=orthogonalEdgeStyle;rounded=0;orthogonalLoop=1;jettySize=auto;html=1;strokeColor=light-dark(#ff0000, #ededed);" edge="1" parent="TL9MQoXClcoYPPyAwhr7-63" target="TL9MQoXClcoYPPyAwhr7-88">
          <mxGeometry relative="1" as="geometry">
            <mxPoint x="1179" y="540" as="targetPoint" />
            <Array as="points">
              <mxPoint x="78" y="190" />
              <mxPoint x="79" y="190" />
            </Array>
            <mxPoint x="78" y="190" as="sourcePoint" />
          </mxGeometry>
        </mxCell>
        <mxCell id="TL9MQoXClcoYPPyAwhr7-88" value="Mostrar calendario de eventos" style="rounded=1;whiteSpace=wrap;html=1;arcSize=40;fontColor=#000000;fillColor=#ffffc0;strokeColor=light-dark(#ff0000, #ededed);" vertex="1" parent="TL9MQoXClcoYPPyAwhr7-63">
          <mxGeometry x="19" y="220" width="120" height="40" as="geometry" />
        </mxCell>
        <mxCell id="TL9MQoXClcoYPPyAwhr7-153" style="edgeStyle=orthogonalEdgeStyle;rounded=0;orthogonalLoop=1;jettySize=auto;html=1;entryX=0.602;entryY=0.355;entryDx=0;entryDy=0;entryPerimeter=0;strokeColor=light-dark(#ff0000, #ededed);" edge="1" parent="TL9MQoXClcoYPPyAwhr7-63">
          <mxGeometry relative="1" as="geometry">
            <mxPoint x="124.16" y="170" as="sourcePoint" />
            <mxPoint x="124.4400000000002" y="187.10000000000002" as="targetPoint" />
          </mxGeometry>
        </mxCell>
        <mxCell id="TL9MQoXClcoYPPyAwhr7-154" value="" style="shape=line;html=1;strokeWidth=6;strokeColor=#ff0000;" vertex="1" parent="TL9MQoXClcoYPPyAwhr7-63">
          <mxGeometry x="49" y="280" width="161" height="20" as="geometry" />
        </mxCell>
        <mxCell id="TL9MQoXClcoYPPyAwhr7-155" value="" style="edgeStyle=orthogonalEdgeStyle;rounded=0;orthogonalLoop=1;jettySize=auto;html=1;strokeColor=light-dark(#ff0000, #ededed);" edge="1" parent="TL9MQoXClcoYPPyAwhr7-63">
          <mxGeometry relative="1" as="geometry">
            <mxPoint x="79.5" y="290" as="targetPoint" />
            <Array as="points">
              <mxPoint x="78.5" y="260" />
              <mxPoint x="79.5" y="260" />
            </Array>
            <mxPoint x="78.5" y="260" as="sourcePoint" />
          </mxGeometry>
        </mxCell>
        <mxCell id="TL9MQoXClcoYPPyAwhr7-156" value="" style="edgeStyle=orthogonalEdgeStyle;rounded=0;orthogonalLoop=1;jettySize=auto;html=1;strokeColor=light-dark(#ff0000, #ededed);exitX=0.504;exitY=1.024;exitDx=0;exitDy=0;exitPerimeter=0;" edge="1" parent="TL9MQoXClcoYPPyAwhr7-63" source="TL9MQoXClcoYPPyAwhr7-118">
          <mxGeometry relative="1" as="geometry">
            <mxPoint x="179" y="290" as="targetPoint" />
            <Array as="points">
              <mxPoint x="179" y="270" />
              <mxPoint x="179" y="270" />
            </Array>
            <mxPoint x="179" y="270" as="sourcePoint" />
          </mxGeometry>
        </mxCell>
        <mxCell id="TL9MQoXClcoYPPyAwhr7-159" value="" style="edgeStyle=orthogonalEdgeStyle;html=1;verticalAlign=bottom;endArrow=open;endSize=8;strokeColor=#ff0000;rounded=0;exitX=1;exitY=0.5;exitDx=0;exitDy=0;exitPerimeter=0;" edge="1" parent="TL9MQoXClcoYPPyAwhr7-63" source="TL9MQoXClcoYPPyAwhr7-154">
          <mxGeometry relative="1" as="geometry">
            <mxPoint x="299" y="190" as="targetPoint" />
            <mxPoint x="228.99999999999977" y="285" as="sourcePoint" />
            <Array as="points">
              <mxPoint x="249" y="290" />
              <mxPoint x="249" y="190" />
            </Array>
          </mxGeometry>
        </mxCell>
        <mxCell id="TL9MQoXClcoYPPyAwhr7-160" value="Â¿Rol admin?" style="rhombus;whiteSpace=wrap;html=1;fontColor=#000000;fillColor=#ffffc0;strokeColor=#ff0000;" vertex="1" parent="TL9MQoXClcoYPPyAwhr7-63">
          <mxGeometry x="300" y="160" width="80" height="60" as="geometry" />
        </mxCell>
        <mxCell id="TL9MQoXClcoYPPyAwhr7-161" value="no" style="edgeStyle=orthogonalEdgeStyle;html=1;align=left;verticalAlign=bottom;endArrow=open;endSize=8;strokeColor=#ff0000;rounded=0;" edge="1" parent="TL9MQoXClcoYPPyAwhr7-63" source="TL9MQoXClcoYPPyAwhr7-160">
          <mxGeometry x="-1" relative="1" as="geometry">
            <mxPoint x="-131" y="430" as="targetPoint" />
            <Array as="points">
              <mxPoint x="439" y="190" />
              <mxPoint x="439" y="480" />
              <mxPoint x="-131" y="480" />
            </Array>
          </mxGeometry>
        </mxCell>
        <mxCell id="TL9MQoXClcoYPPyAwhr7-162" value="si" style="edgeStyle=orthogonalEdgeStyle;html=1;align=left;verticalAlign=top;endArrow=open;endSize=8;strokeColor=#ff0000;rounded=0;" edge="1" parent="TL9MQoXClcoYPPyAwhr7-63" source="TL9MQoXClcoYPPyAwhr7-160">
          <mxGeometry x="-1" relative="1" as="geometry">
            <mxPoint x="340" y="290" as="targetPoint" />
          </mxGeometry>
        </mxCell>
        <mxCell id="TL9MQoXClcoYPPyAwhr7-167" style="edgeStyle=orthogonalEdgeStyle;rounded=0;orthogonalLoop=1;jettySize=auto;html=1;exitX=0.75;exitY=0.5;exitDx=0;exitDy=0;exitPerimeter=0;entryX=0.5;entryY=0;entryDx=0;entryDy=0;strokeColor=light-dark(#ff0000, #ededed);" edge="1" parent="TL9MQoXClcoYPPyAwhr7-63" source="TL9MQoXClcoYPPyAwhr7-164" target="TL9MQoXClcoYPPyAwhr7-72">
          <mxGeometry relative="1" as="geometry" />
        </mxCell>
        <mxCell id="TL9MQoXClcoYPPyAwhr7-168" style="edgeStyle=orthogonalEdgeStyle;rounded=0;orthogonalLoop=1;jettySize=auto;html=1;exitX=0.75;exitY=0.5;exitDx=0;exitDy=0;exitPerimeter=0;entryX=0.5;entryY=0;entryDx=0;entryDy=0;strokeColor=light-dark(#ff0000, #ededed);" edge="1" parent="TL9MQoXClcoYPPyAwhr7-63" source="TL9MQoXClcoYPPyAwhr7-164" target="TL9MQoXClcoYPPyAwhr7-75">
          <mxGeometry relative="1" as="geometry" />
        </mxCell>
        <mxCell id="TL9MQoXClcoYPPyAwhr7-169" style="edgeStyle=orthogonalEdgeStyle;rounded=0;orthogonalLoop=1;jettySize=auto;html=1;exitX=0.75;exitY=0.5;exitDx=0;exitDy=0;exitPerimeter=0;entryX=0.5;entryY=0;entryDx=0;entryDy=0;strokeColor=light-dark(#ff0000, #ededed);" edge="1" parent="TL9MQoXClcoYPPyAwhr7-63" source="TL9MQoXClcoYPPyAwhr7-164" target="TL9MQoXClcoYPPyAwhr7-83">
          <mxGeometry relative="1" as="geometry" />
        </mxCell>
        <mxCell id="TL9MQoXClcoYPPyAwhr7-164" value="" style="shape=line;html=1;strokeWidth=6;strokeColor=light-dark(#ff0000, #ededed);" vertex="1" parent="TL9MQoXClcoYPPyAwhr7-63">
          <mxGeometry x="40" y="300" width="360" height="10" as="geometry" />
        </mxCell>
        <mxCell id="TL9MQoXClcoYPPyAwhr7-166" style="edgeStyle=orthogonalEdgeStyle;rounded=0;orthogonalLoop=1;jettySize=auto;html=1;exitX=0.75;exitY=0.5;exitDx=0;exitDy=0;exitPerimeter=0;entryX=0.439;entryY=-0.005;entryDx=0;entryDy=0;entryPerimeter=0;strokeColor=light-dark(#ff0000, #ededed);" edge="1" parent="TL9MQoXClcoYPPyAwhr7-63" source="TL9MQoXClcoYPPyAwhr7-164" target="TL9MQoXClcoYPPyAwhr7-78">
          <mxGeometry relative="1" as="geometry" />
        </mxCell>
      </root>
    </mxGraphModel>
  </diagram>
</mxfile>
